# xmcd
#
# Track frame offsets:
#	150
#	11670
#	24397
#	40010
#	54053
#	66525
#	83073
#	99130
#	111866
#	123645
#	152391
#	166930
#
# Disc length: 2479 seconds
#
# Revision: 1
# Processed by: cddbd v1.5.2PL0 Copyright (c) Steve Scherf et al.
# Submitted via: EZCDAudioConverter 2.8.1.1
#
DISCID=8509ad0c
DTITLE=Jackson 5 - ICON 2 [CD2)
DYEAR=2010
DGENRE=R&B
TTITLE0=Rockin' Robin
TTITLE1=Little BittyPretty One
TTITLE2=That's How Love Goes
TTITLE3=Daddy's Home
TTITLE4=Ben
TTITLE5=Corner of the Sky
TTITLE6=With a Child's Heart
TTITLE7=Get it Together
TTITLE8=Dancing Machine
TTITLE9=Foreever Came Today
TTITLE10=Just a Little bit of You
TTITLE11=One Day in Your Life
EXTD=
EXTT0=
EXTT1=
EXTT2=
EXTT3=
EXTT4=
EXTT5=
EXTT6=
EXTT7=
EXTT8=
EXTT9=
EXTT10=
EXTT11=
PLAYORDER=
